<svg width="26" height="26" viewBox="0 0 26 26" fill="none" xmlns="http://www.w3.org/2000/svg">
<path d="M13 2.16669C7.0265 2.16669 2.16667 7.02652 2.16667 13C2.16667 18.9735 7.0265 23.8334 13 23.8334C18.9735 23.8334 23.8333 18.9735 23.8333 13C23.8333 7.02652 18.9735 2.16669 13 2.16669ZM10.8344 17.7808L7.57841 14.5318C7.15509 14.1094 7.15424 13.4238 7.5765 13.0004C7.99902 12.5766 8.6851 12.5759 9.10859 12.9986L10.8323 14.7193L15.8015 9.75002C16.2245 9.32702 16.9103 9.32702 17.3333 9.75002C17.7563 10.173 17.7563 10.8588 17.3333 11.2819L10.8344 17.7808Z" fill="#40FF53"/>
</svg>
