<svg width="146" height="146" viewBox="0 0 146 146" fill="none" xmlns="http://www.w3.org/2000/svg">
<g filter="url(#filter0_d_274_27)">
<rect x="23" y="13" width="100" height="100" rx="20" fill="#E7B3FF"/>
<mask id="path-2-inside-1_274_27" fill="white">
<path fill-rule="evenodd" clip-rule="evenodd" d="M105.995 77.7212H111.376C114.137 77.7212 116.376 75.4826 116.376 72.7212V60.4661C116.376 58.9868 115.721 57.5833 114.587 56.6333L98.512 43.1672C97.612 42.4132 96.4753 42 95.3012 42H87.9592C85.1977 42 82.9592 44.2386 82.9592 47V72.7212C82.9592 75.4826 85.1977 77.7212 87.9592 77.7212H90.0048C90.1517 73.432 93.675 70 98 70C102.325 70 105.848 73.432 105.995 77.7212ZM89 55V51C89 49.8954 89.8954 49 91 49H95.4578C95.9176 49 96.3634 49.1585 96.7201 49.4487L101.636 53.4487C103.096 54.6367 102.256 57 100.373 57H91C89.8954 57 89 56.1046 89 55Z"/>
</mask>
<path d="M105.995 77.7212L103.996 77.7896L104.063 79.7212H105.995V77.7212ZM114.587 56.6333L115.871 55.1002L114.587 56.6333ZM98.512 43.1672L97.2277 44.7003L98.512 43.1672ZM90.0048 77.7212V79.7212H91.9374L92.0036 77.7896L90.0048 77.7212ZM96.7201 49.4487L97.9824 47.8974L97.9824 47.8974L96.7201 49.4487ZM101.636 53.4487L102.898 51.8974L101.636 53.4487ZM111.376 75.7212H105.995V79.7212H111.376V75.7212ZM114.376 72.7212C114.376 74.378 113.033 75.7212 111.376 75.7212V79.7212C115.242 79.7212 118.376 76.5872 118.376 72.7212H114.376ZM114.376 60.4661V72.7212H118.376V60.4661H114.376ZM113.302 58.1665C113.983 58.7365 114.376 59.5785 114.376 60.4661H118.376C118.376 58.395 117.459 56.4302 115.871 55.1002L113.302 58.1665ZM97.2277 44.7003L113.302 58.1665L115.871 55.1002L99.7964 41.6341L97.2277 44.7003ZM95.3012 44C96.0056 44 96.6877 44.2479 97.2277 44.7003L99.7964 41.6341C98.5363 40.5785 96.945 40 95.3012 40V44ZM87.9592 44H95.3012V40H87.9592V44ZM84.9592 47C84.9592 45.3431 86.3023 44 87.9592 44V40C84.0932 40 80.9592 43.134 80.9592 47H84.9592ZM84.9592 72.7212V47H80.9592V72.7212H84.9592ZM87.9592 75.7212C86.3023 75.7212 84.9592 74.378 84.9592 72.7212H80.9592C80.9592 76.5872 84.0932 79.7212 87.9592 79.7212V75.7212ZM90.0048 75.7212H87.9592V79.7212H90.0048V75.7212ZM92.0036 77.7896C92.1137 74.5741 94.7567 72 98 72V68C92.5934 68 88.1896 72.29 88.0059 77.6527L92.0036 77.7896ZM98 72C101.243 72 103.886 74.5741 103.996 77.7896L107.994 77.6527C107.81 72.29 103.407 68 98 68V72ZM87 51V55H91V51H87ZM91 47C88.7909 47 87 48.7909 87 51H91H91V47ZM95.4578 47H91V51H95.4578V47ZM97.9824 47.8974C97.2691 47.3169 96.3775 47 95.4578 47V51V51L97.9824 47.8974ZM102.898 51.8974L97.9824 47.8974L95.4578 51L100.373 55L102.898 51.8974ZM100.373 59C104.138 59 105.818 54.2734 102.898 51.8974L100.373 55C100.383 55.008 100.388 55.0133 100.39 55.015C100.391 55.0168 100.391 55.0163 100.389 55.0134C100.387 55.0107 100.385 55.0069 100.383 55.0023C100.381 54.9978 100.38 54.9935 100.379 54.9898C100.377 54.9824 100.378 54.9796 100.377 54.9824C100.377 54.9856 100.376 54.992 100.373 55C100.371 55.008 100.367 55.0135 100.365 55.0161C100.364 55.0184 100.365 55.0159 100.371 55.0113C100.374 55.009 100.378 55.0066 100.382 55.0043C100.387 55.002 100.391 55.0004 100.394 54.9993C100.397 54.9982 100.398 54.9983 100.396 54.9987C100.393 54.999 100.386 55 100.373 55V59ZM91 59H100.373V55H91V59ZM87 55C87 57.2091 88.7909 59 91 59V55H87Z" fill="#8502C2" mask="url(#path-2-inside-1_274_27)"/>
<circle cx="98.5" cy="77.5" r="5.5" stroke="#8502C2" stroke-width="2"/>
<mask id="path-5-inside-2_274_27" fill="white">
<path fill-rule="evenodd" clip-rule="evenodd" d="M43 42C40.2386 42 38 44.2386 38 47V73C38 75.7614 40.2386 78 43 78H47C47 73.5817 50.5817 70 55 70C59.4183 70 63 73.5817 63 78H76C78.7614 78 81 75.7614 81 73V47C81 44.2386 78.7614 42 76 42H43Z"/>
</mask>
<path d="M47 78V80H49V78H47ZM63 78H61V80H63V78ZM40 47C40 45.3431 41.3431 44 43 44V40C39.134 40 36 43.134 36 47H40ZM40 73V47H36V73H40ZM43 76C41.3431 76 40 74.6569 40 73H36C36 76.866 39.134 80 43 80V76ZM47 76H43V80H47V76ZM49 78C49 74.6863 51.6863 72 55 72V68C49.4772 68 45 72.4772 45 78H49ZM55 72C58.3137 72 61 74.6863 61 78H65C65 72.4772 60.5228 68 55 68V72ZM76 76H63V80H76V76ZM79 73C79 74.6569 77.6569 76 76 76V80C79.866 80 83 76.866 83 73H79ZM79 47V73H83V47H79ZM76 44C77.6569 44 79 45.3431 79 47H83C83 43.134 79.866 40 76 40V44ZM43 44H76V40H43V44Z" fill="#8502C2" mask="url(#path-5-inside-2_274_27)"/>
<circle cx="54.5" cy="77.5" r="5.5" stroke="#8502C2" stroke-width="2"/>
<path d="M32.4227 49.3953C31.8704 49.3953 31.4227 49.843 31.4227 50.3953C31.4227 50.9475 31.8704 51.3953 32.4227 51.3953V49.3953ZM35.2211 51.3953C35.7734 51.3953 36.2211 50.9475 36.2211 50.3953C36.2211 49.843 35.7734 49.3953 35.2211 49.3953V51.3953ZM32.4227 51.3953H35.2211V49.3953H32.4227V51.3953Z" fill="#8502C2"/>
<path d="M29.6243 60.589C29.072 60.589 28.6243 61.0367 28.6243 61.589C28.6243 62.1413 29.072 62.589 29.6243 62.589L29.6243 60.589ZM35.2211 62.589C35.7734 62.589 36.2211 62.1413 36.2211 61.589C36.2211 61.0367 35.7734 60.589 35.2211 60.589L35.2211 62.589ZM29.6243 62.589L35.2211 62.589L35.2211 60.589L29.6243 60.589L29.6243 62.589Z" fill="#8502C2"/>
<path d="M31.0235 71.7828C30.4712 71.7828 30.0235 72.2306 30.0235 72.7828C30.0235 73.3351 30.4712 73.7828 31.0235 73.7828L31.0235 71.7828ZM35.2212 73.7828C35.7734 73.7828 36.2212 73.3351 36.2212 72.7828C36.2212 72.2306 35.7734 71.7828 35.2212 71.7828L35.2212 73.7828ZM31.0235 73.7828L35.2212 73.7828L35.2212 71.7828L31.0235 71.7828L31.0235 73.7828Z" fill="#8502C2"/>
</g>
<defs>
<filter id="filter0_d_274_27" x="0" y="0" width="146" height="146" filterUnits="userSpaceOnUse" color-interpolation-filters="sRGB">
<feFlood flood-opacity="0" result="BackgroundImageFix"/>
<feColorMatrix in="SourceAlpha" type="matrix" values="0 0 0 0 0 0 0 0 0 0 0 0 0 0 0 0 0 0 127 0" result="hardAlpha"/>
<feOffset dy="10"/>
<feGaussianBlur stdDeviation="11.5"/>
<feComposite in2="hardAlpha" operator="out"/>
<feColorMatrix type="matrix" values="0 0 0 0 0.905882 0 0 0 0 0.698039 0 0 0 0 1 0 0 0 0.5 0"/>
<feBlend mode="normal" in2="BackgroundImageFix" result="effect1_dropShadow_274_27"/>
<feBlend mode="normal" in="SourceGraphic" in2="effect1_dropShadow_274_27" result="shape"/>
</filter>
</defs>
</svg>
