<svg width="70" height="70" viewBox="0 0 70 70" fill="none" xmlns="http://www.w3.org/2000/svg">
<g filter="url(#filter0_d_283_419)">
<circle cx="35" cy="22" r="17" fill="#F53838"/>
</g>
<path d="M34.4 5C25.1215 5 17.6 12.5215 17.6 21.8C17.6 31.0785 25.1215 38.6 34.4 38.6C43.6785 38.6 51.2 31.0785 51.2 21.8C51.2 12.5215 43.6785 5 34.4 5ZM41.2337 18.762C41.2407 18.9055 41.2425 19.049 41.2425 19.189C41.2425 23.564 37.9157 28.6058 31.8292 28.6058C30.0307 28.6087 28.2697 28.0922 26.7577 27.1183C27.015 27.1498 27.2792 27.162 27.547 27.162C29.0975 27.162 30.5237 26.6353 31.656 25.7463C30.966 25.7327 30.2974 25.5042 29.7434 25.0927C29.1894 24.6811 28.7777 24.107 28.5655 23.4503C29.061 23.5445 29.5715 23.5247 30.0582 23.3925C29.3093 23.2411 28.6358 22.8353 28.152 22.2439C27.6681 21.6526 27.4037 20.9121 27.4035 20.148V20.1078C27.8497 20.3545 28.3607 20.505 28.9032 20.5225C28.2011 20.0551 27.7041 19.3372 27.5138 18.5155C27.3235 17.6938 27.4543 16.8304 27.8795 16.102C28.7106 17.124 29.7472 17.9601 30.922 18.556C32.0968 19.152 33.3836 19.4947 34.6992 19.5618C34.532 18.8518 34.604 18.1065 34.904 17.4416C35.204 16.7768 35.7153 16.2297 36.3584 15.8855C37.0014 15.5412 37.7402 15.419 38.4598 15.5379C39.1794 15.6568 39.8396 16.0102 40.3377 16.543C41.0783 16.3965 41.7884 16.1248 42.4377 15.7398C42.1909 16.5065 41.6742 17.1576 40.9835 17.572C41.6395 17.493 42.28 17.3166 42.884 17.0488C42.4403 17.7136 41.8815 18.2938 41.2337 18.762V18.762Z" fill="white"/>
<defs>
<filter id="filter0_d_283_419" x="0" y="0" width="70" height="70" filterUnits="userSpaceOnUse" color-interpolation-filters="sRGB">
<feFlood flood-opacity="0" result="BackgroundImageFix"/>
<feColorMatrix in="SourceAlpha" type="matrix" values="0 0 0 0 0 0 0 0 0 0 0 0 0 0 0 0 0 0 127 0" result="hardAlpha"/>
<feOffset dy="13"/>
<feGaussianBlur stdDeviation="9"/>
<feColorMatrix type="matrix" values="0 0 0 0 0.0658854 0 0 0 0 0.0730469 0 0 0 0 0.1375 0 0 0 0.08 0"/>
<feBlend mode="normal" in2="BackgroundImageFix" result="effect1_dropShadow_283_419"/>
<feBlend mode="normal" in="SourceGraphic" in2="effect1_dropShadow_283_419" result="shape"/>
</filter>
</defs>
</svg>
