<svg width="96" height="259" viewBox="0 0 96 259" fill="none" xmlns="http://www.w3.org/2000/svg">
<path d="M25.7496 224.869C23.1748 211.995 26.8225 201.052 28.9682 197.189L30.2557 194.615H46.9923V197.833C43.3875 200.923 37.7657 222.723 35.4054 233.237C37.9803 234.782 36.4783 237.743 35.4054 239.031V244.18C36.9504 248.3 34.7617 248.901 33.4743 248.686C37.0792 250.231 36.2638 252.763 35.4054 253.836C29.7408 256.926 26.608 255.123 25.7496 253.836C21.1148 251.261 22.9603 247.184 24.4623 245.468V242.249C21.8875 240.189 22.1021 239.245 22.5313 239.031C20.9865 236.456 23.175 234.096 24.4623 233.237C20.8577 228.603 23.8186 225.727 25.7496 224.869Z" fill="#A21CAF" stroke="black" stroke-width="0.643713"/>
<path d="M50.2109 225.513C47.6361 219.848 49.1381 204.27 50.2109 197.189L67.5913 191.396V195.902C67.5913 215.986 63.2999 232.594 61.1542 238.387C62.6991 243.022 60.5105 245.039 59.2231 245.468C58.1502 242.035 56.6482 237.486 59.2231 246.755C61.7979 256.025 55.1463 257.913 51.4986 257.698C43.2594 254.609 46.7782 248.257 49.5675 245.468C44.4178 240.318 48.7092 236.456 51.4986 235.168C45.8339 232.594 48.2799 227.658 50.2109 225.513Z" fill="#A21CAF" stroke="black" stroke-width="0.643713"/>
<path d="M1 193H8.05882L25 167.535C24.2941 142.777 23.3059 92.8378 22.1765 99.6284C21.0471 106.419 7.35294 165.413 1 193Z" fill="#A21CAF" stroke="black" stroke-width="0.5"/>
<path d="M18.7143 2.11727C13.6286 4.90007 11.4153 12.089 10.9444 15.3355L21.5397 18.1183C23.1878 16.495 25.4952 16.3095 21.5397 28.5538C17.5841 40.7981 23.1878 47.1058 26.4841 48.7291V56.3818C28.1794 62.5039 13.5344 154.011 6 199H95C93.3048 152.249 73.5741 79.3398 63.9206 48.7291C66.746 40.3807 66.0397 34.1194 65.3333 32.0323C54.0317 32.0323 51.2063 22.7563 51.2063 18.1183C30.7222 25.0753 32.8413 8.37856 32.1349 6.29146C31.4286 4.20437 25.0714 -1.36122 18.7143 2.11727Z" fill="#D946EF" stroke="black" stroke-width="0.5"/>
</svg>
